<svg width="540" height="503" viewBox="0 0 540 503" fill="none" xmlns="http://www.w3.org/2000/svg">
<g clip-path="url(#clip0)">
<path d="M230.396 147.727C232.051 147.397 233.129 145.768 232.793 144.094C232.455 142.417 230.837 141.331 229.181 141.663C227.522 141.994 226.449 143.618 226.785 145.297C227.12 146.969 228.737 148.06 230.396 147.727Z" fill="#F1F3F2"/>
<path d="M229.636 170.314C229.651 170.286 229.663 170.258 229.675 170.229L232.603 163.158C232.984 162.237 232.6 161.179 231.717 160.716L226.585 158.027L229.189 155.508L234.606 161.418C235.048 161.859 236.018 161.902 236.458 161.551C237.137 161.009 237.013 160.081 236.523 159.348C236.523 159.348 229.921 148.961 229.477 148.562C228.685 147.852 227.392 148.043 226.598 149.011L226.198 149.49L205.854 126.492L213.244 119.758L217.028 122.628C217.513 122.947 218.04 123.034 218.612 122.89C219.187 122.743 219.587 122.406 219.821 121.88C220.119 121.211 220.06 120.556 219.649 119.918L217.102 114.017L218.211 111.534L204.493 115.957C204.903 114.984 204.43 113.805 203.48 113.44C203.299 113.359 201.052 112.363 199.75 111.783L201.526 107.794C202.044 106.63 201.519 105.263 200.353 104.745C199.19 104.225 197.824 104.75 197.305 105.914L194.861 111.405C194.575 112.048 194.614 112.747 194.894 113.335L185.701 109.243C184.628 108.766 183.549 108.744 182.461 109.174C181.372 109.606 180.59 110.359 180.115 111.427L177.211 117.952L179.959 119.175L182.823 112.742L184.252 113.364L181.618 119.284L179.194 120.897L175.233 129.827C174.932 130.503 175.144 131.275 175.702 131.711L171.85 129.997L168.936 136.541L200.173 150.445L203.087 143.9L195.62 140.576C196.279 140.643 196.935 140.287 197.219 139.648L201.31 130.632L204.79 127.461L225.267 150.607L210.88 167.885C210.878 167.887 210.877 167.89 210.876 167.891L210.872 167.896C210.022 168.957 210.6 169.972 210.847 170.314H206.933V150.484H166.225V172.143H237.913V170.314H229.636V170.314ZM183.645 135.248L176.402 132.024C177.099 132.145 177.815 131.787 178.116 131.111L181.345 123.883L181.339 123.875L189.973 119.587L190.384 120.391L183.796 123.659L183.322 134.217C183.304 134.602 183.427 134.963 183.645 135.248ZM194.335 138.364C194.052 139.003 194.226 139.729 194.716 140.175L185.025 135.862C185.805 135.801 186.435 135.171 186.473 134.368L186.86 125.766L190.314 123.814L199.135 127.756L194.335 138.364ZM226.157 170.314H213.894L222.487 161.994L228.223 163.668L226.117 168.756C225.901 169.279 225.934 169.839 226.157 170.314Z" fill="#F1F3F2"/>
<path d="M201.884 104.151C203.304 104.151 204.454 103 204.454 101.581C204.454 100.161 203.304 99.0103 201.884 99.0103C200.465 99.0103 199.314 100.161 199.314 101.581C199.314 103 200.465 104.151 201.884 104.151Z" fill="#F1F3F2"/>
<path d="M225.56 381.969C222.453 378.501 218.196 376.275 213.574 375.703C210.512 375.335 207.343 375.829 204.159 377.169C200.707 378.622 197.779 381.125 194.153 382.205C190.428 383.316 186.742 382.024 184.296 378.75C183.991 378.343 183.716 377.914 183.473 377.467C181.662 374.163 181.691 370.242 181.715 366.783L181.719 366.336C181.719 366.182 181.749 366.029 181.808 365.887C181.867 365.745 181.954 365.615 182.063 365.507C182.172 365.398 182.301 365.312 182.443 365.253C182.586 365.194 182.738 365.164 182.893 365.164L192.891 365.18C192.481 364.47 192.265 363.664 192.266 362.844V358.88L186.93 361.548L185.882 359.452L192.913 355.936C193.092 355.847 193.291 355.805 193.49 355.814C193.69 355.823 193.884 355.883 194.054 355.988C194.223 356.093 194.364 356.239 194.461 356.414C194.558 356.588 194.609 356.785 194.609 356.984V362.844C194.61 363.465 194.857 364.061 195.297 364.5C195.736 364.94 196.332 365.187 196.953 365.188C197.264 365.188 197.562 365.311 197.782 365.531C198.002 365.751 198.125 366.049 198.125 366.359V368.838C198.492 368.538 198.787 368.159 198.99 367.731C199.193 367.302 199.297 366.834 199.297 366.359C199.297 366.049 199.42 365.751 199.64 365.531C199.86 365.311 200.158 365.188 200.469 365.188C200.78 365.188 201.078 365.311 201.297 365.531C201.517 365.751 201.641 366.049 201.641 366.359V368.838C202.007 368.538 202.303 368.159 202.505 367.731C202.708 367.302 202.813 366.834 202.812 366.359C202.812 366.049 202.936 365.751 203.156 365.531C203.376 365.311 203.674 365.188 203.984 365.188C204.295 365.188 204.593 365.311 204.813 365.531C205.033 365.751 205.156 366.049 205.156 366.359V368.838C205.523 368.538 205.818 368.159 206.021 367.731C206.224 367.302 206.329 366.834 206.328 366.359V365.188C206.327 364.566 206.08 363.97 205.641 363.531C205.201 363.092 204.606 362.844 203.984 362.844H198.125C197.814 362.844 197.516 362.72 197.296 362.501C197.077 362.281 196.953 361.983 196.953 361.672V354.917C196.953 354.471 196.839 354.031 196.622 353.641C196.404 353.251 196.09 352.923 195.71 352.688C195.331 352.453 194.897 352.32 194.451 352.299C194.004 352.279 193.56 352.374 193.161 352.574L184.587 356.861L183.538 354.764L192.113 350.477C192.87 350.099 193.711 349.92 194.556 349.958C195.401 349.996 196.223 350.25 196.943 350.695C197.662 351.139 198.257 351.761 198.669 352.5C199.081 353.239 199.297 354.071 199.297 354.917V360.5H203.113L208.672 355.697V348.781H211.016V357.723L216.239 363.817C216.608 364.247 217.065 364.592 217.579 364.829C218.093 365.065 218.653 365.188 219.219 365.188C219.53 365.188 219.828 365.311 220.047 365.531C220.267 365.751 220.391 366.049 220.391 366.359V368.838C220.757 368.538 221.053 368.159 221.255 367.731C221.458 367.302 221.563 366.834 221.562 366.359C221.562 366.049 221.686 365.751 221.906 365.531C222.126 365.311 222.424 365.188 222.734 365.188C223.045 365.188 223.343 365.311 223.563 365.531C223.783 365.751 223.906 366.049 223.906 366.359V368.838C224.273 368.538 224.568 368.159 224.771 367.731C224.974 367.302 225.079 366.834 225.078 366.359C225.078 366.049 225.202 365.751 225.421 365.531C225.641 365.311 225.939 365.188 226.25 365.188C226.561 365.188 226.859 365.311 227.079 365.531C227.298 365.751 227.422 366.049 227.422 366.359V368.838C227.789 368.538 228.084 368.159 228.287 367.731C228.489 367.302 228.594 366.834 228.594 366.359V365.188C228.593 364.566 228.346 363.97 227.906 363.531C227.467 363.092 226.871 362.844 226.25 362.844H219.219C219.043 362.844 218.87 362.804 218.711 362.728C218.553 362.652 218.413 362.541 218.304 362.404L213.616 356.545C213.45 356.337 213.359 356.079 213.359 355.813V346.438H215.703V349.621L223.04 343.282L235.429 326.397L234.914 325.368L227.079 333.204L225.421 331.546L233.809 323.159L233.729 323H222.605C222.441 323 222.279 323.035 222.129 323.102C221.979 323.168 221.844 323.266 221.734 323.388L215.062 330.798C212.862 333.264 209.951 334.988 206.731 335.732C196.049 338.183 186.809 343.547 180.714 350.837C176.885 355.415 174.689 361.013 174.689 366.195V366.359C174.695 369.323 174.829 373.165 175.823 376.579C176.973 380.538 179.158 383.525 182.503 385.712C188.184 389.422 195.25 389.501 200.087 385.909C202.523 384.098 204.751 381.983 207.483 380.603C212.732 377.952 219.442 378.898 224.178 382.957L226.937 385.319C227.056 385.421 227.209 385.473 227.365 385.464C227.521 385.455 227.667 385.386 227.772 385.271C227.872 385.15 227.924 384.997 227.918 384.841C227.912 384.685 227.85 384.536 227.742 384.423L225.56 381.969ZM224.492 325.344C224.84 325.344 225.18 325.447 225.469 325.64C225.758 325.833 225.983 326.108 226.116 326.429C226.249 326.75 226.284 327.104 226.216 327.444C226.148 327.785 225.981 328.099 225.735 328.345C225.489 328.59 225.176 328.758 224.835 328.826C224.494 328.893 224.141 328.859 223.82 328.726C223.498 328.593 223.224 328.367 223.031 328.078C222.837 327.789 222.734 327.449 222.734 327.102C222.735 326.636 222.92 326.189 223.25 325.859C223.579 325.53 224.026 325.344 224.492 325.344ZM219.219 332.375C219.682 332.375 220.135 332.512 220.521 332.77C220.906 333.028 221.207 333.394 221.384 333.822C221.561 334.25 221.608 334.721 221.517 335.176C221.427 335.631 221.204 336.048 220.876 336.376C220.548 336.704 220.131 336.927 219.676 337.017C219.221 337.108 218.75 337.061 218.322 336.884C217.894 336.707 217.528 336.406 217.27 336.021C217.012 335.635 216.875 335.182 216.875 334.719C216.876 334.097 217.123 333.502 217.562 333.062C218.002 332.623 218.597 332.376 219.219 332.375ZM213.95 337.217L215.113 339.252L198.706 348.627L197.544 346.592L213.95 337.217ZM228.594 370.887V372.219H208.672V369.875H218.047V367.531H208.545C208.242 368.942 207.401 370.179 206.2 370.978L204.634 372.022C204.458 372.14 204.253 372.207 204.041 372.217C203.829 372.228 203.618 372.18 203.431 372.08C203.244 371.98 203.088 371.831 202.979 371.649C202.87 371.467 202.813 371.259 202.812 371.047V370.89C202.77 370.92 202.728 370.949 202.684 370.978L201.119 372.022C200.942 372.14 200.737 372.207 200.525 372.217C200.314 372.228 200.103 372.18 199.916 372.08C199.729 371.98 199.572 371.831 199.463 371.649C199.354 371.467 199.297 371.259 199.297 371.047V370.89C199.255 370.92 199.212 370.949 199.169 370.978L197.603 372.022C197.427 372.14 197.222 372.207 197.01 372.217C196.798 372.228 196.587 372.18 196.4 372.08C196.213 371.98 196.057 371.831 195.948 371.649C195.839 371.467 195.781 371.259 195.781 371.047V367.531H184.055C184.041 370.388 184.112 373.285 185.228 375.734H201.709C202.254 375.454 202.762 375.214 203.25 375.009C206.814 373.509 210.381 372.959 213.853 373.375C216.474 373.691 219.013 374.491 221.341 375.734H235.625V372.219H230.938V369.875H235.625V367.531H230.81C230.519 368.888 229.727 370.086 228.594 370.887ZM193.438 372.219H186.406V369.875H193.438V372.219ZM230.938 362.844C231.559 362.844 232.155 363.092 232.594 363.531C233.033 363.97 233.281 364.566 233.281 365.188H230.938C230.938 364.364 230.721 363.556 230.307 362.844H230.938ZM172.355 367.531C172.393 370.012 172.563 372.925 173.19 375.734H170V367.531H172.355ZM186.784 378.078H197.594C196.239 378.851 194.906 379.535 193.484 379.959C190.99 380.702 188.595 380.016 186.784 378.078ZM208.954 358.919L214.327 365.188H208.672C208.671 364.322 208.431 363.475 207.978 362.737C207.526 362 206.878 361.403 206.107 361.01L208.799 358.684C208.841 358.769 208.893 358.847 208.954 358.919ZM218.047 350.694V354.641C218.047 354.915 218.143 355.18 218.318 355.391L222.576 360.5H219.782L215.703 355.401V352.719L218.047 350.694Z" fill="#F1F3F2"/>
<path d="M539.997 140.912C540.097 135.845 536.924 132.566 533.072 129.758C530.76 128.071 529.324 125.66 529.036 122.868C528.971 122.235 529.012 121.642 529.127 121.078C529.939 121.861 530.825 123.165 531.374 124.32C531.404 124.384 531.525 124.348 531.537 124.278C531.484 123.286 530.882 121.784 530.249 120.848C532.776 121.247 534.937 120.29 535.95 117.725C534.366 117.262 531.635 117.354 529.886 119.033C530.551 117.776 531.479 116.623 532.274 115.424C533.589 113.439 533.836 110.611 532.05 109.073C529.917 107.237 526.945 108.277 525.922 110.071C525.07 111.569 525.304 113.719 526.865 114.605C528.702 115.647 530.519 114.493 530.755 112.754C530.934 111.454 530.012 110.613 529.046 110.588C528.361 110.571 527.713 111.225 527.87 111.89C527.933 112.167 528.106 112.67 528.887 112.804C529.28 113.394 528.752 114.009 528.129 114.177C527.787 114.27 526.74 113.975 526.356 112.789C525.972 111.603 526.452 109.84 528.253 109.173C529.704 108.788 530.892 109.252 531.816 110.561C532.945 112.249 531.431 114.534 530.496 115.861C529.78 116.875 529.182 117.849 528.723 118.911C528.142 117.112 526.092 116.171 524.171 116.335C524.338 117.823 525.842 119.669 527.601 120.209C526.663 120.628 525.887 121.68 525.57 122.528C525.457 122.83 525.7 122.893 525.849 122.694C526.267 121.978 527.285 121.317 528.058 120.964C527.163 125.421 529.694 129.336 533.117 131.815C535.43 133.491 537.338 136.268 536.941 139.691C536.591 142.698 533.934 146.452 531.156 147.403C529.361 143.529 525.88 140.757 521.716 139.928C515.113 138.615 505.689 144.965 502.075 135.363C508.439 135.333 514.221 133.029 518.25 130.261L517.835 133.439L518.963 130.568L519.632 134.084V129.241C519.686 129.199 519.743 129.157 519.796 129.115C520.163 129.339 520.591 129.477 521.053 129.48C522.41 129.487 523.519 128.394 523.526 127.035C523.535 125.678 522.44 124.57 521.082 124.561C520.296 124.557 519.603 124.928 519.148 125.5C519.077 125.487 519.006 125.486 518.934 125.472L516.261 120.394C516.79 122.228 517.433 123.494 517.664 124.503C516.641 123.023 516.366 122.596 514.783 120.675C515.724 122.45 516.537 123.677 517.188 124.958C512.552 123.257 507.691 118.827 501.643 118.036C507.498 113.393 505.504 102.544 498.722 102.02C495.75 101.787 493.383 103.651 492.08 106.278C488.734 103.432 484.161 102.329 480.458 104.728C473.363 109.324 477.445 121.584 486.363 123.739C485.27 124.869 484.281 126.12 483.43 127.478C479.955 133.018 479.348 138.725 480.783 144.344C478.321 146.362 476.597 141.261 475.326 139.637C472.79 136.432 468.362 134.993 465 137.753C467.193 137.161 470.533 137.839 471.241 139.743C469.672 138.576 467.465 138.867 466.231 139.928C467.387 139.679 469.237 140.17 469.982 141.203C469.015 141.134 468.21 141.731 467.829 142.667C469.062 141.978 470.304 142.57 471.032 143.117C472.816 144.457 473.057 149.344 473.976 152.102C475.176 155.702 481.055 158.11 484.811 153.378C484.994 153.67 485.17 153.963 485.362 154.253C490.689 162.319 499.443 167.811 509.713 168.821C520.532 169.887 530.884 164.898 532.274 155.867C532.443 154.767 532.487 153.699 532.435 152.665C537.062 150.381 539.879 146.942 539.997 140.912ZM482.093 152.818C481.222 153.42 479.566 154.022 477.825 153.076C476.079 152.128 475.687 150.415 475.72 149.356C475.744 148.556 475.979 147.916 476.06 147.947C476.141 147.978 476.196 148.941 476.279 149.436C476.33 149.737 476.416 150.115 476.556 149.79C476.733 149.379 476.915 148.77 477.011 148.8C477.173 148.846 477.16 149.828 477.219 150.478C477.228 150.576 477.322 150.759 477.393 150.618C477.672 150.051 477.964 149.564 478.045 149.561C478.228 149.682 478.14 150.367 478.096 151.045C478.079 151.326 478.22 151.342 478.346 151.196C478.856 150.606 479.176 150.31 479.293 150.374C479.41 150.437 479.337 150.867 479.119 151.616C479.064 151.801 479.155 151.911 479.381 151.744C479.926 151.336 480.454 150.891 480.654 150.979C480.695 151.048 480.446 151.557 480.123 152.102C480.042 152.237 480.249 152.216 480.334 152.17C480.912 151.865 481.728 151.32 481.855 151.429C481.93 151.496 481.521 151.979 481.272 152.352C481.076 152.647 481.44 152.512 481.721 152.392C482.18 152.193 483.018 151.712 483.089 151.764C483.16 151.815 482.752 152.361 482.093 152.818ZM517.194 129.145C516.744 129.675 516.064 129.928 515.29 130.068C514.896 130.138 514.862 129.376 515.196 129.356C515.9 129.314 516.433 129.232 517.079 128.947C517.181 128.925 517.261 129.065 517.194 129.145ZM515.078 125.598C515.713 125.904 516.217 126.094 516.92 126.159C517.021 126.19 517.021 126.351 516.924 126.387C516.273 126.631 515.555 126.52 514.812 126.265C514.432 126.135 514.776 125.453 515.078 125.598ZM514.957 127.511C515.86 127.511 516.804 127.509 517.53 127.441C517.669 127.428 517.721 127.619 517.594 127.678C516.891 128.006 515.863 128.236 515.081 128.248C514.625 128.255 514.139 128.269 514.138 127.678C514.138 127.388 514.773 127.511 514.957 127.511ZM504.91 123.594C506.927 123.507 508.632 125.071 508.719 127.088C508.807 129.105 507.243 130.809 505.225 130.896C503.739 130.961 502.424 130.126 501.8 128.876C502.156 129.044 502.577 129.134 503.025 129.115C504.252 129.061 505.213 128.222 505.171 127.241C505.128 126.259 504.1 125.506 502.871 125.559C502.424 125.578 502.013 125.704 501.671 125.902C502.187 124.602 503.423 123.657 504.91 123.594ZM498.437 105.75C502.936 106.105 504.177 113.638 499.582 116.061C502.136 113.988 502.06 107.837 498.295 107.565C496.713 107.451 495.622 108.451 495.043 109.825C494.782 109.377 494.496 108.945 494.187 108.529C494.997 106.832 496.523 105.602 498.437 105.75ZM499.395 132.969C494.675 130.639 494.282 125.045 498.627 122.143C495.69 125.637 496.018 129.898 499.395 132.969ZM494.2 133.383C494.179 133.588 493.711 134.236 493.29 134.79C493.185 134.928 493.494 134.976 493.615 134.949C494.447 134.792 495.767 134.075 495.951 134.223C496.072 134.311 495.41 135.106 495.114 135.507C494.881 135.823 495.31 135.746 495.678 135.613C496.178 135.468 497.513 134.545 497.693 134.665C497.712 134.841 497.407 135.372 497.144 135.811C496.962 136.11 497.209 136.124 497.501 135.974C498.51 135.457 499.176 134.578 499.43 134.666C498.996 136.45 497.519 137.414 495.544 137.38C493.595 137.369 491.346 136.347 489.747 134.93C488.139 133.535 486.779 131.371 486.63 129.375C486.44 127.362 487.423 125.893 489.2 125.464C489.302 125.693 488.391 126.347 487.927 127.355C487.792 127.648 487.812 127.893 488.101 127.698C488.532 127.413 489.046 127.092 489.222 127.098C489.334 127.257 488.494 128.614 488.388 129.127C488.289 129.5 488.252 129.93 488.547 129.672C488.918 129.344 489.657 128.624 489.754 128.73C489.892 128.902 489.324 130.25 489.25 131.104C489.237 131.225 489.323 131.527 489.449 131.405C489.954 130.928 490.546 130.39 490.746 130.345C490.928 130.605 490.464 131.63 490.316 132.452C490.247 132.792 490.472 132.923 490.649 132.8C490.788 132.718 492.154 131.873 492.318 132.024C492.484 132.177 491.826 133.622 491.759 133.77C491.66 133.958 491.819 134.161 492.143 134.061C492.947 133.806 493.917 133.227 494.2 133.383ZM488.432 116.003C487.099 116.878 488.175 118.82 489.558 119.043C487.342 119.108 486.228 116.175 487.827 115.138C489.428 114.105 491.837 116.201 490.938 118.15C491.245 116.835 489.765 115.131 488.432 116.003ZM483.015 108.377C487.995 105.161 495.489 111.683 492.696 117.744C493.651 113.653 488.509 107.581 484.361 110.297C480.212 113.014 484.101 119.829 488.404 120.519C481.509 120.725 478.04 111.599 483.015 108.377ZM484.852 140.981C483.504 139.174 483.568 137.168 485.021 135.604C485.254 135.758 484.776 136.959 484.918 138.22C484.959 138.584 485.122 138.803 485.288 138.431C485.535 137.885 485.84 137.247 486.013 137.139C486.21 137.224 486.202 139.053 486.391 139.621C486.513 140.043 486.728 140.482 486.861 140.045C487.026 139.492 487.317 138.328 487.472 138.37C487.704 138.445 487.933 140.11 488.357 140.993C488.416 141.119 488.671 141.353 488.722 141.158C488.925 140.374 489.176 139.477 489.341 139.303C489.662 139.438 489.809 140.742 490.152 141.63C490.288 142.003 490.576 142.001 490.671 141.762C490.755 141.595 491.54 139.899 491.779 139.941C492.018 139.996 492.262 141.811 492.289 142.002C492.309 142.25 492.58 142.344 492.824 142.039C493.42 141.285 493.954 140.077 494.299 140.055C494.405 140.266 494.376 141.199 494.33 142.01C494.32 142.213 494.635 142.055 494.729 141.949C495.404 141.255 496.115 139.69 496.362 139.711C496.521 139.711 496.454 140.922 496.446 141.494C496.442 141.956 496.779 141.59 497.018 141.216C497.379 140.741 497.89 138.96 498.107 138.957C498.239 139.107 498.353 139.811 498.427 140.4C498.477 140.805 498.699 140.646 498.841 140.302C499.339 139.119 499.192 137.852 499.444 137.765C500.443 139.652 499.939 141.632 498.086 142.978C496.289 144.314 493.46 144.803 491.085 144.411C488.7 144.07 486.15 142.793 484.852 140.981ZM491.993 153.567C489.775 152.72 488.716 150.812 489.05 148.395C489.326 148.39 489.602 149.814 490.434 150.917C490.677 151.233 490.938 151.334 490.861 150.878C490.749 150.2 490.637 149.403 490.717 149.188C490.919 149.147 491.955 150.88 492.459 151.297C492.809 151.62 493.254 151.897 493.096 151.399C492.893 150.774 492.432 149.486 492.579 149.43C492.799 149.353 493.987 150.787 494.897 151.336C495.026 151.418 495.385 151.476 495.298 151.26C494.957 150.4 494.584 149.402 494.601 149.137C494.932 149.07 495.884 150.177 496.759 150.787C497.12 151.047 497.338 150.838 497.258 150.568C497.216 150.359 496.686 148.314 496.894 148.208C497.095 148.086 498.557 149.605 498.712 149.752C498.898 149.961 499.19 149.886 499.16 149.442C499.099 148.373 498.667 146.978 498.911 146.728C499.146 146.853 499.787 147.702 500.332 148.453C500.467 148.641 500.609 148.305 500.609 148.153C500.634 147.093 500.097 145.295 500.296 145.147C500.429 145.053 501.237 146.156 501.646 146.672C501.973 147.081 501.987 146.556 501.918 146.083C501.855 145.437 501.041 143.56 501.214 143.407C501.437 143.464 502.016 144.025 502.5 144.51C502.826 144.841 502.897 144.568 502.787 144.181C502.393 142.843 501.457 141.736 501.635 141.496C503.754 142.724 504.579 144.735 504.044 146.993C503.558 149.244 501.633 151.486 499.412 152.724C497.205 153.982 494.171 154.461 491.993 153.567ZM509.415 156.384C508.066 158.57 505.697 160.549 503.296 161.101C500.843 161.688 498.737 160.673 497.612 158.328C497.847 158.174 498.911 159.253 500.327 159.717C500.739 159.854 501.023 159.774 500.679 159.42C500.176 158.9 499.598 158.278 499.537 158.036C499.683 157.851 501.669 158.757 502.352 158.816C502.865 158.902 503.42 158.884 502.986 158.53C502.446 158.097 501.278 157.234 501.378 157.092C501.521 156.859 503.456 157.452 504.571 157.431C504.736 157.436 505.101 157.294 504.903 157.146C504.116 156.55 503.228 155.854 503.102 155.599C503.35 155.313 504.872 155.825 505.979 155.917C506.436 155.957 506.545 155.665 506.331 155.454C506.183 155.288 504.658 153.651 504.792 153.418C504.936 153.19 507.075 153.895 507.29 153.962C507.571 154.071 507.785 153.847 507.554 153.446C507.004 152.476 505.923 151.308 506.062 150.949C506.347 150.957 507.351 151.479 508.213 151.953C508.429 152.071 508.415 151.685 508.347 151.539C507.883 150.507 506.599 148.97 506.735 148.727C506.828 148.572 508.081 149.308 508.698 149.635C509.191 149.889 508.982 149.374 508.717 148.938C508.368 148.334 506.822 146.811 506.923 146.58C507.165 146.541 507.962 146.856 508.635 147.134C509.089 147.325 509.05 147.027 508.785 146.687C507.854 145.52 506.496 144.802 506.573 144.486C509.154 144.842 510.755 146.512 511.172 148.931C511.626 151.322 510.82 154.221 509.415 156.384ZM520.539 155.195C520.257 157.881 518.986 160.814 517.036 162.467C515.064 164.178 512.681 164.286 510.623 162.695C510.775 162.432 512.23 162.893 513.727 162.625C514.164 162.551 514.39 162.338 513.923 162.178C513.238 161.942 512.438 161.649 512.279 161.455C512.334 161.205 514.544 161.074 515.19 160.803C515.689 160.633 516.191 160.355 515.646 160.231C514.971 160.086 513.526 159.84 513.562 159.659C513.591 159.37 515.612 158.991 516.61 158.446C516.761 158.371 517.029 158.066 516.785 158.02C515.819 157.834 514.711 157.599 514.489 157.42C514.602 157.033 516.181 156.789 517.236 156.359C517.664 156.185 517.634 155.858 517.35 155.76C517.138 155.671 515.067 154.841 515.082 154.558C515.11 154.272 517.342 153.94 517.563 153.903C517.869 153.874 517.97 153.562 517.579 153.292C516.649 152.631 515.182 152.034 515.138 151.63C515.396 151.504 516.528 151.53 517.51 151.572C517.756 151.583 517.57 151.224 517.445 151.118C516.571 150.358 514.729 149.519 514.733 149.233C514.744 149.045 516.199 149.14 516.899 149.154C517.454 149.163 517.029 148.773 516.589 148.492C516.015 148.081 513.904 147.42 513.895 147.164C514.089 147.012 514.942 146.915 515.668 146.848C516.16 146.806 515.978 146.546 515.579 146.365C514.196 145.736 512.647 145.794 512.565 145.48C514.966 144.479 517.239 145.202 518.76 147.31C520.306 149.365 520.854 152.51 520.539 155.195ZM522.829 162.355C522.765 162.003 524.196 161.201 525.34 160.126C525.66 159.814 525.735 159.539 525.221 159.693C524.459 159.917 523.563 160.186 523.3 160.127C523.189 159.853 525.102 158.491 525.6 158.001C525.981 157.628 526.319 157.197 525.735 157.357C525 157.561 523.501 158.086 523.435 157.92C523.321 157.64 525.075 156.377 525.875 155.58C525.993 155.461 526.136 155.125 525.873 155.182C524.82 155.412 523.607 155.665 523.305 155.6C523.268 155.211 524.783 154.399 525.731 153.715C526.123 153.431 525.992 153.186 525.663 153.195C525.421 153.205 522.977 153.154 522.928 152.877C522.879 152.598 525.153 151.704 525.382 151.626C525.695 151.522 525.732 151.247 525.265 151.118C524.138 150.804 522.435 150.57 522.338 150.191C522.596 150.026 523.823 149.844 524.888 149.69C525.157 149.653 524.906 149.387 524.754 149.318C523.725 148.849 521.644 148.274 521.65 147.971C521.656 147.792 523.243 147.764 524.004 147.698C524.606 147.648 524.138 147.362 523.654 147.142C523.017 146.856 520.748 146.244 520.758 145.946C520.984 145.802 521.918 145.743 522.711 145.689C523.248 145.653 523.082 145.422 522.671 145.239C521.224 144.63 519.604 144.373 519.541 144.021C525.204 143.007 528.118 147.725 528.853 151.815C529.585 155.903 528.491 161.341 522.829 162.355ZM532.784 150.009C532.43 150.005 532.03 149.606 532.308 149.083C534.152 148.437 536.765 145.639 537.374 144.409C537.374 144.409 537.478 144.295 537.568 144.511C536.371 148.012 533.62 149.71 532.784 150.009Z" fill="#F1F3F2"/>
<path fill-rule="evenodd" clip-rule="evenodd" d="M516.05 349.65L506.15 354.15V351.375L515.675 347.1C515.975 347.025 516.2 346.95 516.275 346.8L516.425 346.725L520.85 344.775L517.175 343.125L517.175 343.125C516.874 342.975 515.225 342.15 515 342.075L506.225 338.175V327.9C506.225 325.725 504.5 324 502.325 324H473.9C471.725 324 470 325.725 470 327.9V383.85C470 386.025 471.725 387.75 473.9 387.75H502.25C504.425 387.75 506.15 386.025 506.15 383.85V375L522.05 367.875V346.95L516.725 349.35C516.549 349.438 516.399 349.5 516.275 349.551L516.275 349.551C516.187 349.588 516.112 349.619 516.05 349.65ZM482.9 325.95H491.675C492.125 325.95 492.5 326.325 492.5 326.775C492.5 327.225 492.125 327.6 491.675 327.6H482.9C482.45 327.6 482.075 327.225 482.075 326.775C482 326.325 482.375 325.95 482.9 325.95ZM502.925 380.55H473.225V331.8H503V380.55H502.925ZM501.2 374.85L485.45 367.8V346.95L501.2 354.075V351.3L486.725 344.775L501.2 338.325V333.45H474.95V378.825H501.2V374.85ZM521.225 332.55C521.375 331.95 521.975 331.65 522.575 331.8C523.175 331.95 523.475 332.55 523.325 333.15L522.125 337.275C521.975 337.875 521.375 338.175 520.775 338.025C520.55 337.95 520.325 337.8 520.175 337.575C520.025 337.275 519.95 336.975 520.025 336.675L521.225 332.55ZM532.4 339.075C532.1 338.55 531.425 338.4 530.9 338.775L527.3 341.1C526.775 341.4 526.625 342.075 527 342.6C527.3 343.125 527.975 343.275 528.5 342.9L532.1 340.575C532.55 340.275 532.7 339.6 532.4 339.075ZM529.775 349.575L534.05 349.95C534.65 350.025 535.1 350.475 535.025 351.15C535.025 351.75 534.5 352.2 533.9 352.125L529.625 351.75C529.25 351.675 528.95 351.525 528.8 351.225C528.725 351 528.65 350.775 528.65 350.55C528.65 349.95 529.175 349.5 529.775 349.575Z" fill="#F1F3F2"/>
<path fill-rule="evenodd" clip-rule="evenodd" d="M40.2008 -0.484375H55.9062C65.5988 -0.484375 73.4844 7.40117 73.4844 17.0938V30.5352C73.4844 33.0242 72.7953 35.4594 71.491 37.5805L66.4508 45.7695C64.918 48.2598 64.1094 51.1203 64.1094 54.043C64.1094 61.4539 58.0789 67.4844 50.668 67.4844H29.3656H29.3527C22.7188 67.4844 16.3332 64.6871 11.8355 59.8121C7.75977 55.3965 5.51562 49.6555 5.51562 43.6461V31.2242C5.51562 24.8141 9.84102 19.1844 16.0344 17.5332C20.2684 16.4035 23.9434 13.5746 26.1172 9.76953L27.8973 6.65469C30.4133 2.25078 35.1289 -0.484375 40.2008 -0.484375ZM31.2969 8.89062H28.9531V11.2344H31.2969V8.89062ZM24.2656 29.9844V27.6406H21.9219V29.9844H24.2656ZM21.9219 21.7812C21.9219 19.8102 19.8629 18.2656 17.2344 18.2656C14.6059 18.2656 12.5469 19.8102 12.5469 21.7812C12.5469 23.7523 14.6059 25.2969 17.2344 25.2969C19.8629 25.2969 21.9219 23.7523 21.9219 21.7812ZM12.5469 29.9844H10.2031V32.3281H12.5469C16.1611 32.3281 17.3595 33.5255 18.7471 34.9119L18.7496 34.9145C20.2836 36.4484 22.0227 38.1875 26.6094 38.1875V35.8438C22.9952 35.8438 21.7968 34.6464 20.4092 33.2599L20.4066 33.2574C18.8727 31.7234 17.1336 29.9844 12.5469 29.9844ZM10.2031 44.0469H12.3113C14.3375 44.0469 16.2266 44.9539 17.491 46.5371C19.2031 48.6781 21.759 49.9062 24.5012 49.9062H26.6094V47.5625H24.5012C22.4738 47.5625 20.5859 46.6543 19.3215 45.0723C17.6094 42.9313 15.0535 41.7031 12.3113 41.7031H10.2031V44.0469ZM25.4375 61.625C25.4375 63.5961 27.4965 65.1406 30.125 65.1406C32.7535 65.1406 34.8125 63.5961 34.8125 61.625C34.8125 59.6539 32.7535 58.1094 30.125 58.1094C27.4965 58.1094 25.4375 59.6539 25.4375 61.625ZM51.2188 52.25H53.5625V49.9062H51.2188V52.25ZM55.9062 44.0469C55.9062 46.018 57.9652 47.5625 60.5938 47.5625C63.2223 47.5625 65.2812 46.018 65.2812 44.0469C65.2812 42.0758 63.2223 40.5312 60.5938 40.5312C57.9652 40.5312 55.9062 42.0758 55.9062 44.0469ZM45.3594 59.2812H47.7031V56.9375H45.3594V59.2812ZM48.8571 42.5491C48.9386 42.5442 49.0199 42.5393 49.1012 42.5234C58.4762 40.741 65.2812 32.5109 65.2812 22.9531C65.2812 12.6148 56.8695 4.20312 46.5312 4.20312C36.8387 4.20312 28.9531 12.0887 28.9531 21.7812C28.9531 28.6895 33.9605 34.4504 40.5371 35.6246L40.557 35.6609L38.9645 38.0504C37.4398 40.3379 34.8887 41.7031 32.1395 41.7031H28.9531V44.0469H32.1395C35.6738 44.0469 38.9539 42.2914 40.9145 39.3512L41.8566 37.9367L42.8539 39.6816C43.5957 40.9801 44.7945 41.8988 46.168 42.3371L43.9297 46.7141C42.9242 48.684 40.925 49.9062 38.7137 49.9062H33.8422C31.9273 49.9062 30.0617 50.5813 28.5898 51.807L25.4703 54.4074C24.4203 55.2828 23.0879 55.7656 21.7203 55.7656H17.2344V58.1094H21.7203C23.6352 58.1094 25.5008 57.4344 26.9727 56.2086L30.0922 53.6082C31.1422 52.7328 32.4746 52.25 33.8422 52.25H38.7137C41.8098 52.25 44.6082 50.5379 46.0168 47.7816L48.6852 42.5633C48.7426 42.556 48.7999 42.5526 48.8571 42.5491ZM68.7969 10.0625H66.4531V12.4062H68.7969V10.0625ZM68.7969 25.2969H71.1406V22.9531H68.7969V25.2969ZM46.5312 6.54688C38.1312 6.54688 31.2969 13.3812 31.2969 21.7812C31.2969 28.243 36.5539 33.5 43.0156 33.5C49.4773 33.5 54.7344 28.243 54.7344 21.7812C54.7344 17.9035 51.5809 14.75 47.7031 14.75C43.8277 14.75 40.6742 17.9023 40.6719 21.7777C40.6719 23.0305 41.1582 24.2094 42.0441 25.0953C42.9301 25.9812 44.1066 26.4688 45.3594 26.4688C46.652 26.4688 47.7031 25.4176 47.7031 24.125C47.7031 22.8324 46.652 21.7812 45.3594 21.7812V19.4375C47.9445 19.4375 50.0469 21.5398 50.0469 24.125C50.0469 26.7102 47.9445 28.8125 45.3594 28.8125C43.5219 28.8125 41.7957 28.1082 40.4773 26.8344L37.8066 28.6156L36.507 26.6656L39.084 24.9477C38.593 23.9773 38.3281 22.9004 38.3281 21.7812H35.9844V19.4375H38.6363C38.9609 18.1848 39.534 17.0352 40.3063 16.0426L38.6703 14.4066L40.3273 12.7496L41.9621 14.3855C43.2582 13.3777 44.8215 12.7027 46.5301 12.4883V10.0625H48.8738V12.4871C50.9949 12.7531 52.9004 13.7234 54.3383 15.166L56.4266 13.7738L57.7262 15.7238L55.7691 17.0281C56.5953 18.425 57.0781 20.0457 57.0781 21.7812C57.0781 22.1762 57.0523 22.5652 57.0195 22.9531H59.4219V25.2969H56.6164C56.2227 26.8156 55.5969 28.2418 54.7531 29.518L56.7348 31.4996L55.0777 33.1566L53.2836 31.3625C52.2184 32.5027 50.9691 33.4637 49.5793 34.2008L51.0219 36.3652L49.0719 37.6648L47.3914 35.1441C46.1164 35.5625 44.7641 35.8062 43.359 35.8391L44.8895 38.518C45.6359 39.8234 47.1535 40.5113 48.6652 40.2207C56.9352 38.6492 62.9375 31.3859 62.9375 22.9531C62.9375 13.9062 55.5781 6.54688 46.5312 6.54688ZM60.5938 45.2188C61.8882 45.2188 62.9375 44.6941 62.9375 44.0469C62.9375 43.3997 61.8882 42.875 60.5938 42.875C59.2993 42.875 58.25 43.3997 58.25 44.0469C58.25 44.6941 59.2993 45.2188 60.5938 45.2188ZM32.4688 61.625C32.4688 62.2722 31.4194 62.7969 30.125 62.7969C28.8306 62.7969 27.7812 62.2722 27.7812 61.625C27.7812 60.9778 28.8306 60.4531 30.125 60.4531C31.4194 60.4531 32.4688 60.9778 32.4688 61.625ZM17.2344 22.9531C18.5288 22.9531 19.5781 22.4285 19.5781 21.7812C19.5781 21.134 18.5288 20.6094 17.2344 20.6094C15.94 20.6094 14.8906 21.134 14.8906 21.7812C14.8906 22.4285 15.94 22.9531 17.2344 22.9531Z" fill="#F1F3F2"/>
<path d="M39.3657 226.955H35.1988C34.2438 226.955 33.4696 227.729 33.4696 228.684V234.995C33.4696 235.95 34.2438 236.724 35.1988 236.724H39.3657C40.3207 236.724 41.0949 235.95 41.0949 234.995V228.684C41.0949 227.729 40.3207 226.955 39.3657 226.955ZM39.7343 233.82H34.8302V233.403H39.7343V233.82ZM39.7343 232.639H34.8302V232.222H39.7343V232.639ZM39.7343 231.457H34.8302V231.041H39.7343V231.457ZM39.7343 230.276H34.8302V229.859H39.7343V230.276Z" fill="#F1F3F2"/>
<path d="M51.2321 258.902C52.4646 258.902 53.5823 259.403 54.3921 260.213V257.919H48.0679V260.21C48.3438 259.934 48.6555 259.696 48.993 259.503C49.6715 259.109 50.4458 258.902 51.2321 258.902Z" fill="#F1F3F2"/>
<path d="M68.1522 223.403C68.4815 223.074 68.7525 222.695 68.9526 222.27H5.6106C6.26097 223.641 7.65335 224.587 9.27091 224.587H65.2924C66.4096 224.587 67.4184 224.133 68.1522 223.403Z" fill="#F1F3F2"/>
<path d="M49.0334 232.983H47.3951C46.8494 232.983 46.4032 233.43 46.4032 233.976C46.4032 234.522 45.9613 234.968 45.4151 234.968H41.4701V234.995C41.4701 236.155 40.5257 237.1 39.3657 237.1H35.1988C34.0388 237.1 33.0944 236.155 33.0944 234.995V234.968H29.1526C28.6019 234.968 28.1601 234.522 28.1601 233.976C28.1601 233.863 28.1394 233.755 28.1057 233.655C28.0557 233.508 27.9769 233.38 27.8726 233.275C27.6976 233.104 27.4638 232.996 27.2057 232.983H25.5312V238.82H49.0334V232.983Z" fill="#F1F3F2"/>
<path d="M52.8996 232.984V229.449H57.9719C59.5851 229.449 61.0444 228.794 62.0988 227.739C62.6907 227.147 63.1538 226.43 63.4457 225.634H11.1176C11.9388 227.86 14.0819 229.449 16.5913 229.449H21.665V232.984V238.82V244.928C20.7679 245.486 20.1704 246.48 20.1704 247.614V256.138H26.4946V247.614C26.4946 246.48 25.8971 245.486 25.0001 244.928V238.82V232.984V229.449H33.0944V228.684C33.0944 227.524 34.0388 226.58 35.1988 226.58H39.3657C40.5257 226.58 41.4701 227.524 41.4701 228.684V229.449H49.5646V232.984V238.82V244.926C48.8204 245.389 48.2829 246.151 48.1201 247.044C48.0866 247.09 48.0679 247.136 48.0679 247.183V247.614V256.138H54.3921V247.614V247.183C54.3921 247.057 54.3584 246.945 54.2975 246.846C54.0962 246.04 53.5859 245.357 52.8996 244.929V238.82V232.984H52.8996Z" fill="#F1F3F2"/>
<path d="M63.8082 234.101V232.983H53.4308V238.82H59.0888C61.6988 238.82 63.8082 236.707 63.8082 234.101Z" fill="#F1F3F2"/>
<path d="M10.755 234.101C10.755 236.707 12.8688 238.82 15.4744 238.82H21.1338V232.983H10.755V234.101Z" fill="#F1F3F2"/>
<path d="M5.31162 221.728H69.2528C70.2071 221.728 70.9807 220.954 70.9807 220H3.58374C3.58374 220.954 4.3573 221.728 5.31162 221.728Z" fill="#F1F3F2"/>
<path d="M42.6634 255.48C42.663 255.483 42.6624 255.485 42.6621 255.487H42.7219H43.9684H45.2191H45.2778C45.2775 255.485 45.2769 255.483 45.2765 255.48C45.4352 255.445 45.531 255.265 45.4525 255.112L44.7355 253.682C44.5812 253.365 44.2727 253.207 43.9684 253.207C43.6641 253.207 43.3598 253.365 43.2013 253.682L42.4885 255.112C42.41 255.265 42.5025 255.444 42.6634 255.48Z" fill="#F1F3F2"/>
<path d="M60.4596 255.112L59.7468 253.682C59.5883 253.365 59.284 253.207 58.9797 253.207C58.6754 253.207 58.3669 253.365 58.2126 253.682L57.4956 255.112C57.4171 255.265 57.5128 255.444 57.6714 255.48C57.6711 255.483 57.6705 255.485 57.6701 255.487H57.7291H58.9798H60.2263H60.2859C60.2856 255.485 60.285 255.483 60.2846 255.48C60.4456 255.445 60.5381 255.265 60.4596 255.112Z" fill="#F1F3F2"/>
<path d="M14.2795 255.483C14.2793 255.484 14.2789 255.486 14.2787 255.487H14.3238H16.821H16.8944C16.8939 255.484 16.8931 255.48 16.8926 255.477C17.0428 255.434 17.1306 255.26 17.0545 255.112L16.3374 253.682C16.1832 253.365 15.8747 253.207 15.5704 253.207C15.2661 253.207 14.9617 253.365 14.8033 253.682L14.0904 255.112C14.0097 255.269 14.1099 255.455 14.2795 255.483Z" fill="#F1F3F2"/>
<path d="M32.0619 255.112L31.3449 253.682C31.1906 253.365 30.8821 253.207 30.5778 253.207C30.2735 253.207 29.9692 253.365 29.8107 253.682L29.0979 255.112C29.0171 255.27 29.1175 255.455 29.2874 255.483C29.2872 255.485 29.2868 255.486 29.2866 255.487H29.3312H31.8284H31.9022C31.9017 255.484 31.9009 255.48 31.9004 255.477C32.0504 255.434 32.138 255.26 32.0619 255.112Z" fill="#F1F3F2"/>
<path d="M23.3346 258.902C24.5671 258.902 25.6848 259.403 26.4946 260.213V257.919H20.1704V260.21C20.4463 259.934 20.758 259.696 21.0955 259.503C21.774 259.109 22.5483 258.902 23.3346 258.902Z" fill="#F1F3F2"/>
<path d="M47.1298 263.781C48.041 263.868 48.6211 264.072 49.1863 264.272C49.912 264.529 50.5974 264.771 52.0054 264.771C53.4135 264.771 54.0989 264.529 54.8246 264.272C54.9891 264.214 55.155 264.156 55.33 264.099V263.379C55.33 261.115 53.4956 259.277 51.2319 259.277C50.4857 259.277 49.7853 259.477 49.1809 259.827C48.8682 260.006 48.5847 260.223 48.3304 260.477C47.5884 261.224 47.1298 262.249 47.1298 263.379V263.781H47.1298Z" fill="#F1F3F2"/>
<path d="M19.2324 264.375C19.3309 264.342 19.4282 264.307 19.5262 264.272C20.2696 264.009 21.0384 263.738 22.5536 263.738C22.5832 263.738 22.6114 263.738 22.6391 263.739L22.6402 263.738H22.7744C24.2895 263.738 25.0596 264.009 25.8044 264.271C26.2899 264.442 26.7569 264.607 27.4326 264.697V263.379C27.4326 261.115 25.5983 259.277 23.3346 259.277C22.5884 259.277 21.888 259.477 21.2835 259.827C20.9709 260.006 20.6874 260.223 20.4331 260.477C19.691 261.224 19.2325 262.249 19.2325 263.379V264.375H19.2324Z" fill="#F1F3F2"/>
<path d="M31.2169 264.271C31.4411 264.192 31.6678 264.112 31.9162 264.04V255.888H29.2731V256.69H16.9082V255.888H14.2651V264.403C14.8726 264.606 15.5427 264.771 16.7071 264.771C16.776 264.771 16.8427 264.771 16.9082 264.77V257.367H29.2731V264.733C30.1247 264.656 30.6587 264.468 31.2169 264.271Z" fill="#F1F3F2"/>
<path d="M57.8524 263.737C58.9846 263.737 59.6999 263.889 60.2994 264.076V255.888H57.6563V256.69H45.2914V255.888H42.6483V264.363C42.7361 264.333 42.8232 264.302 42.9109 264.271C43.5409 264.049 44.1893 263.821 45.2914 263.756V257.367H57.6563V263.739C57.7204 263.738 57.7854 263.737 57.8524 263.737Z" fill="#F1F3F2"/>
<path d="M75 283.097V265.39C73.7404 265.347 73.042 265.101 72.3661 264.862C71.6403 264.605 70.9548 264.363 69.5465 264.363C68.1383 264.363 67.4528 264.605 66.727 264.862C65.9835 265.125 65.2146 265.397 63.6991 265.397C62.1838 265.397 61.415 265.125 60.6716 264.862C60.5476 264.818 60.4248 264.775 60.2994 264.733C59.6906 264.529 59.02 264.363 57.8524 264.363C57.7853 264.363 57.7203 264.363 57.6564 264.364C56.5625 264.383 55.9248 264.555 55.3302 264.758C55.2307 264.792 55.1323 264.827 55.0332 264.862C54.2897 265.125 53.5209 265.397 52.0056 265.397C50.4903 265.397 49.7215 265.125 48.9781 264.862C48.4425 264.672 47.9285 264.491 47.13 264.409C46.8467 264.379 46.5278 264.363 46.1591 264.363C46.1415 264.363 46.1254 264.363 46.1092 264.364C46.0909 264.364 46.0727 264.365 46.0532 264.365C46.0277 264.365 46.0095 264.364 45.9912 264.364C45.9751 264.363 45.9589 264.363 45.9414 264.363C45.7056 264.363 45.4904 264.37 45.2915 264.382C44.3022 264.444 43.7242 264.648 43.1186 264.861C42.9651 264.915 42.8104 264.97 42.6484 265.022C42.0452 265.217 41.3394 265.383 40.2061 265.394C38.7628 265.381 38.0133 265.116 37.2885 264.861C36.5614 264.605 35.8746 264.363 34.4666 264.363C34.4488 264.363 34.4325 264.363 34.4162 264.364C34.3978 264.364 34.3794 264.365 34.3599 264.365C34.3343 264.365 34.3159 264.364 34.2976 264.364C34.2812 264.363 34.2649 264.363 34.2471 264.363C33.1544 264.363 32.4961 264.508 31.9162 264.693C31.7486 264.747 31.5876 264.803 31.4246 264.861C30.8398 265.067 30.2385 265.279 29.2731 265.36C29.0423 265.379 28.7909 265.391 28.5136 265.394C28.1019 265.39 27.7469 265.366 27.4326 265.327C26.6453 265.23 26.1146 265.043 25.5966 264.861C24.8928 264.613 24.2268 264.378 22.9079 264.363L22.9016 264.37L22.764 264.367C22.7351 264.367 22.7071 264.366 22.679 264.365C22.6384 264.364 22.5977 264.363 22.5536 264.363C21.1456 264.363 20.4602 264.605 19.7346 264.862C19.5709 264.92 19.4061 264.978 19.2324 265.034C18.6524 265.22 17.9727 265.377 16.9083 265.395C16.8425 265.396 16.7759 265.397 16.7071 265.397C15.5781 265.397 14.8636 265.246 14.2652 265.06C14.0606 264.996 13.8694 264.929 13.68 264.862C12.9544 264.605 12.2691 264.363 10.8613 264.363C9.45356 264.363 8.76825 264.605 8.04269 264.862C7.29931 265.125 6.53069 265.397 5.01562 265.397C3.50031 265.397 2.73163 265.125 1.98812 264.862C1.42212 264.661 0.879125 264.47 0 264.396V283.097H75Z" fill="#F1F3F2"/>
<path d="M71.0482 440.504C69.9263 437.866 67.3268 436.012 64.2885 435.97C64.287 435.968 64.2855 435.967 64.284 435.967C64.2682 435.967 64.2525 435.968 64.236 435.968C64.2188 435.968 64.2023 435.966 64.1858 435.966C63.6353 435.966 63.1005 436.029 62.5845 436.142C62.508 436.158 62.4337 436.177 62.3587 436.195C62.325 436.203 62.2913 436.21 62.2583 436.219C58.827 437.079 56.8207 439.873 56.6505 440.119C56.5395 440.051 56.4285 439.984 56.3122 439.921C53.412 438.377 49.821 439.138 47.7967 441.727L39.0285 452.938C28.2375 454.156 18.7125 460.682 13.7078 470.405L11.3445 474.997H16.8502C25.1677 474.997 32.7803 470.881 37.488 464.439H40.0605C38.535 466.804 36.6547 468.947 34.4707 470.764C29.4817 474.913 23.3888 477.106 16.8502 477.106H10.2592L3.75 489.751L20.625 485.533H29.7195L27.645 492.925H26.685L25.4258 495.035H35.7743L33.8377 492.925H29.8365L31.911 485.533H31.9725C33.9368 485.533 35.8395 485.322 37.665 484.927L39.909 492.925H38.8695L37.6102 495.035H47.9587L46.0222 492.925H42.1005L39.708 484.398C53.0737 480.355 61.5667 466.127 57.5445 451.797L58.995 449.284H63.108L62.9228 448.811C62.3835 447.432 61.2795 446.358 59.901 445.85C59.8875 444.166 59.2447 442.523 58.0762 441.274L58.7768 440.332C59.6753 439.224 61.044 438.513 62.5823 438.513C64.7865 438.513 66.6488 439.96 67.2728 441.955C67.572 442.914 68.4945 443.553 69.5257 443.398C70.9538 443.182 71.6138 441.834 71.0482 440.504ZM55.926 446.458C55.263 446.458 54.7253 445.921 54.7253 445.258C54.7253 444.595 55.263 444.057 55.926 444.057C56.589 444.057 57.1267 444.595 57.1267 445.258C57.1267 445.921 56.589 446.458 55.926 446.458Z" fill="#F1F3F2"/>
<path d="M356.401 31.4917C356.401 31.4917 356.334 31.5128 356.204 31.5353C356.206 31.5855 356.21 31.635 356.205 31.686C356.15 32.3168 355.607 32.7847 354.992 32.7307C354.377 32.6775 353.924 32.1225 353.978 31.4917C353.981 31.4692 353.987 31.4482 353.99 31.4258C353.12 31.2533 352.022 30.915 350.684 30.27C350.684 30.27 357.13 30.2873 357.284 30.27C357.19 31.3103 356.401 31.4917 356.401 31.4917ZM360.476 39.867L357.529 42.2467L359.628 43.8172L359.782 43.6935C360.185 43.3672 360.341 42.8228 360.171 42.3323L359.981 41.787L360.545 41.1015C360.818 40.77 360.82 40.293 360.551 39.9593L360.476 39.867ZM360.26 37.4385C360.119 37.4385 360.004 37.5532 360.004 37.695C360.004 37.7738 360.082 37.9492 360.271 37.9492C360.397 37.9545 360.57 37.9215 360.768 37.848C361.072 37.7347 361.298 37.5653 361.33 37.4378C361.33 37.4385 360.264 37.4385 360.26 37.4385ZM349.246 51.3172C349.246 50.526 349.29 49.7437 349.373 48.9697L342.258 46.1385C345.479 43.9538 347.597 40.263 347.597 36.0773V28.5353H360.599C359.267 19.4858 351.471 12.5392 342.052 12.5392C338.59 12.5392 335.349 13.4812 332.566 15.1178C332.681 14.5252 332.744 13.9132 332.744 13.287C332.743 8.01975 328.473 3.75 323.207 3.75C317.94 3.75 313.67 8.01975 313.67 13.2863C313.67 18.5527 317.94 22.8225 323.207 22.8225C323.984 22.8225 324.738 22.7273 325.461 22.5518C324.154 25.029 323.387 27.834 323.312 30.8123L323.3 30.8175V36.0773C323.3 42.7868 328.739 48.2258 335.449 48.2258C335.877 48.2258 336.299 48.2032 336.716 48.1597C335.852 59.778 331.529 63.582 331.529 71.25C336.775 71.25 354.365 71.25 360.007 71.25C353.381 66.2497 349.246 59.1697 349.246 51.3172Z" fill="#F1F3F2"/>
<path d="M362.461 219.01C361.488 219.052 360.494 219.226 359.506 219.5C355.992 220.475 352.317 222.661 348.787 225.117C345.258 227.572 341.88 230.312 339.119 232.411C337.739 233.461 336.515 234.352 335.531 234.954C334.546 235.556 333.75 235.805 333.638 235.805C328.185 235.805 323.244 240.342 323.244 240.342C323.067 240.495 322.937 240.699 322.869 240.928C322.801 241.156 322.798 241.401 322.861 241.631C322.923 241.862 323.049 242.069 323.222 242.226C323.395 242.384 323.609 242.487 323.837 242.521C330.499 243.618 336.385 247.945 339.893 254.379C340.04 254.651 340.281 254.855 340.566 254.95C340.852 255.046 341.161 255.026 341.433 254.894C342.726 254.277 343.404 252.976 343.546 251.781C343.688 250.586 343.48 249.411 343.308 248.332C343.136 247.253 342.993 246.258 343.052 245.659C343.11 245.059 343.106 244.997 343.58 244.819C345.483 244.106 346.65 243.284 347.407 242.239C348.164 241.194 348.461 240.142 349.025 238.891C350.107 236.493 351.785 235.436 354.281 234.689C356.776 233.941 360.025 233.652 363.669 232.979C367.552 232.262 369.705 230.099 370.364 227.744C371.023 225.39 370.372 223.063 369.096 221.649C367.839 220.256 366.322 219.473 364.679 219.161C364.268 219.083 363.849 219.033 363.424 219.012C363.106 218.996 362.785 218.996 362.461 219.01ZM363.493 223.114C363.969 223.122 364.424 223.334 364.761 223.707C364.931 223.895 365.066 224.119 365.159 224.366C365.251 224.612 365.298 224.876 365.298 225.143C365.298 225.41 365.251 225.674 365.159 225.92C365.066 226.167 364.931 226.391 364.761 226.579C364.417 226.96 363.951 227.173 363.466 227.173C362.98 227.173 362.514 226.96 362.17 226.579C362 226.391 361.865 226.167 361.772 225.92C361.68 225.674 361.633 225.41 361.633 225.143C361.633 224.876 361.68 224.612 361.772 224.366C361.865 224.119 362 223.895 362.17 223.707C362.344 223.515 362.55 223.364 362.777 223.262C363.005 223.16 363.248 223.11 363.493 223.114ZM327.096 244.643L324.624 246.835C327.945 247.54 330.932 249.23 333.356 251.598L335.194 249.964C332.882 247.545 330.118 245.727 327.096 244.643ZM321.109 248.936C318.993 248.936 316.898 249.398 314.944 250.294C312.99 251.191 311.214 252.506 309.718 254.163C308.222 255.82 307.035 257.788 306.226 259.953C305.416 262.118 305 264.439 305 266.782C305 269.126 305.417 271.446 306.227 273.611C307.036 275.776 308.223 277.743 309.719 279.4C311.214 281.057 312.99 282.371 314.944 283.268C316.899 284.165 318.993 284.626 321.109 284.626C325.38 284.626 329.477 282.746 332.497 279.399C335.518 276.053 337.215 271.515 337.215 266.782C337.215 262.05 335.519 257.511 332.498 254.164C329.478 250.817 325.381 248.937 321.109 248.936ZM311.523 258.131C311.524 258.131 311.525 258.131 311.525 258.131C311.745 258.137 311.959 258.206 312.143 258.331C312.327 258.456 312.475 258.632 312.569 258.838C312.663 259.045 312.701 259.274 312.677 259.502C312.654 259.729 312.571 259.945 312.436 260.126C311.833 260.963 311.344 261.894 310.974 262.889C310.922 263.047 310.84 263.193 310.732 263.317C310.625 263.442 310.494 263.542 310.349 263.613C310.203 263.684 310.045 263.723 309.884 263.729C309.724 263.734 309.564 263.706 309.414 263.646C309.264 263.585 309.127 263.494 309.012 263.377C308.897 263.261 308.805 263.121 308.743 262.967C308.681 262.813 308.65 262.647 308.651 262.48C308.652 262.313 308.685 262.148 308.749 261.994C309.197 260.791 309.798 259.666 310.534 258.646C310.635 258.5 310.765 258.378 310.915 258.29C311.065 258.201 311.232 258.148 311.404 258.133C311.444 258.13 311.483 258.129 311.523 258.131L311.523 258.131ZM321.109 264.038C321.766 264.038 322.396 264.327 322.861 264.841C323.326 265.356 323.587 266.054 323.587 266.782C323.588 267.143 323.524 267.5 323.399 267.833C323.275 268.167 323.092 268.47 322.862 268.725C322.632 268.98 322.358 269.182 322.057 269.32C321.757 269.458 321.434 269.529 321.109 269.529C320.783 269.529 320.461 269.458 320.16 269.32C319.859 269.182 319.586 268.98 319.356 268.725C319.125 268.47 318.943 268.167 318.818 267.833C318.694 267.5 318.63 267.143 318.63 266.782C318.63 266.054 318.891 265.356 319.356 264.841C319.821 264.327 320.452 264.038 321.109 264.038ZM308.985 265.984C309.144 265.982 309.301 266.013 309.449 266.075C309.596 266.137 309.73 266.23 309.842 266.346C309.954 266.463 310.043 266.602 310.103 266.755C310.163 266.909 310.193 267.073 310.191 267.238C310.19 270.294 311.295 273.22 313.235 275.345C315.175 277.47 317.775 278.624 320.468 278.583C320.78 278.585 321.079 278.714 321.301 278.943C321.523 279.172 321.65 279.482 321.654 279.807C321.659 280.131 321.541 280.445 321.325 280.68C321.11 280.915 320.814 281.053 320.502 281.065C317.129 281.115 313.89 279.65 311.512 277.045C309.134 274.441 307.804 270.915 307.806 267.238C307.804 267.075 307.833 266.913 307.892 266.762C307.95 266.611 308.036 266.473 308.146 266.357C308.255 266.24 308.385 266.147 308.529 266.083C308.673 266.019 308.828 265.985 308.985 265.984Z" fill="#F1F3F2"/>
<path fill-rule="evenodd" clip-rule="evenodd" d="M357.825 453.534C360.164 448.891 362.588 444.078 364.107 444.939C366.751 446.444 362.291 455.878 359.627 461.514C358.738 463.394 358.049 464.851 357.89 465.451C356.96 468.535 355.051 474.753 354.022 477.739C353.791 478.395 353.536 479.227 353.229 480.226C352.369 483.028 351.107 487.144 348.833 492.377C346.385 498.056 344.28 499.377 341.049 501.287C337.72 503.245 330.964 501.482 330.328 501.287C326.558 500.21 321.908 495.608 321.908 487.187C321.908 478.767 321.271 474.802 319.607 470.591C318.369 467.551 316.493 464.28 314.994 461.665C314.417 460.659 313.895 459.751 313.487 458.989C313.142 458.345 312.692 457.585 312.221 456.79C310.688 454.203 308.94 451.251 309.913 450.764C312.331 448.83 316.65 453.772 320.238 457.877C322.825 460.837 325.032 463.363 325.873 462.563C326.662 461.813 326.585 457.022 326.496 451.557C326.365 443.465 326.21 433.894 328.81 433.777C331.285 433.666 331.833 441.575 332.302 448.341C332.659 453.49 332.97 457.977 334.049 457.765C335.533 457.473 336.336 451.32 337.192 444.755C338.199 437.031 339.282 428.734 341.637 428.734C344.106 428.734 343.619 437.73 343.197 445.524C342.875 451.481 342.59 456.737 343.693 456.737C344.956 456.737 346.58 451.243 348.201 445.76C349.848 440.191 351.491 434.632 352.75 434.854C354.664 435.195 353.67 442.351 352.726 449.148C351.908 455.037 351.127 460.657 352.309 461.339C353.538 462.048 355.644 457.865 357.825 453.534ZM324.551 479.795L325.139 480.334L327.586 477.739L326.999 477.2L324.551 479.795ZM327.929 482.047L328.614 482.439L330.377 479.452L329.692 479.061L327.929 482.047ZM332.139 483.663L332.874 483.907L333.902 480.48L333.167 480.236L332.139 483.663ZM336.888 484.25H337.671V480.774H336.888V484.25ZM341.784 480.089L341.049 480.334L342.077 483.76L342.812 483.516L341.784 480.089ZM344.574 479.306L346.336 482.292L347.022 481.9L345.259 478.914L344.574 479.306ZM337.867 478.62H338.063C345.39 478.483 349.504 471.877 350.085 470.944C350.125 470.88 350.149 470.843 350.155 470.836L350.302 470.542L350.008 470.347C349.984 470.335 349.919 470.296 349.816 470.237C348.679 469.572 342.967 466.234 338.161 466.234C332.54 466.234 327.007 469.805 326.247 470.295C326.206 470.322 326.179 470.339 326.167 470.347L325.873 470.542L326.02 470.836C326.069 470.934 330.132 478.62 337.867 478.62ZM347.316 477.641L349.763 480.236L350.351 479.697L347.903 477.103L347.316 477.641ZM348.001 470.102C345.798 468.927 341.637 466.969 338.112 466.969C334.097 466.969 330.034 468.927 327.978 470.102C330.279 469.906 334.489 469.563 338.063 469.563C341.539 469.563 345.7 469.906 348.001 470.102ZM334 470.444C334.196 471.032 334.979 473.186 337.427 473.186C339.923 473.186 341.098 470.934 341.343 470.396C341.606 470.419 341.869 470.432 342.126 470.444H342.126L342.127 470.444C342.396 470.456 342.659 470.468 342.91 470.493C342.91 470.542 341.196 474.606 337.28 474.606C333.577 474.606 332.567 471.015 332.444 470.581C332.442 470.573 332.44 470.566 332.439 470.561C332.436 470.552 332.434 470.546 332.433 470.542C332.923 470.493 333.461 470.444 334 470.444ZM343.573 470.834L343.574 470.834C343.584 470.811 343.591 470.795 343.595 470.787C343.644 470.689 343.644 470.64 343.644 470.542C346.043 470.689 348.148 470.885 349.127 470.983C348.05 472.599 344.28 477.739 338.063 477.837H337.867C331.748 477.837 328.027 472.648 326.999 470.983C327.831 470.885 329.594 470.738 331.65 470.591V470.738C331.65 470.787 332.727 475.389 337.231 475.389C341.497 475.389 343.339 471.348 343.573 470.834Z" fill="#F1F3F2"/>
</g>
<defs>
<clipPath id="clip0">
<rect width="540" height="503" fill="white"/>
</clipPath>
</defs>
</svg>
